<svg width="275" height="51" viewBox="0 0 275 51" fill="none" xmlns="http://www.w3.org/2000/svg">
<g filter="url(#filter0_d_109_13)">
<rect x="3" width="269" height="45" rx="10" fill="white"/>
<rect x="3.25" y="0.25" width="268.5" height="44.5" rx="9.75" stroke="#CECECE" stroke-width="0.5"/>
</g>
<g clip-path="url(#clip0_109_13)">
<path fill-rule="evenodd" clip-rule="evenodd" d="M36.3788 22.5001C36.3788 21.7062 36.5107 20.9451 36.746 20.2312L32.6268 17.0857C31.824 18.7157 31.3717 20.5524 31.3717 22.5001C31.3717 24.4462 31.8235 26.2818 32.6251 27.9107L36.7421 24.759C36.509 24.0485 36.3788 23.2901 36.3788 22.5001Z" fill="#FBBC05"/>
<path fill-rule="evenodd" clip-rule="evenodd" d="M43.6113 15.2778C45.336 15.2778 46.8937 15.8889 48.1177 16.8889L51.6783 13.3334C49.5086 11.4445 46.7268 10.2778 43.6113 10.2778C38.7744 10.2778 34.6174 13.0439 32.6268 17.0856L36.746 20.2312C37.6951 17.3501 40.4006 15.2778 43.6113 15.2778Z" fill="#EB4335"/>
<path fill-rule="evenodd" clip-rule="evenodd" d="M43.6113 29.7224C40.4006 29.7224 37.6951 27.6502 36.746 24.769L32.6268 27.914C34.6174 31.9563 38.7744 34.7224 43.6113 34.7224C46.5966 34.7224 49.4468 33.6624 51.5859 31.6763L47.676 28.6535C46.5727 29.3485 45.1835 29.7224 43.6113 29.7224Z" fill="#34A853"/>
<path fill-rule="evenodd" clip-rule="evenodd" d="M55.2946 22.5001C55.2946 21.7778 55.1833 21.0001 55.0164 20.2778H43.6113V25.0001H50.1762C49.848 26.6101 48.9545 27.8478 47.676 28.6534L51.586 31.6762C53.833 29.5906 55.2946 26.4839 55.2946 22.5001Z" fill="#4285F4"/>
</g>
<path d="M72.768 28.288C71.7013 28.288 70.7893 28.1013 70.032 27.728C69.2853 27.3547 68.6827 26.8693 68.224 26.272C67.7653 25.6747 67.4293 25.0293 67.216 24.336C67.0027 23.632 66.896 22.9547 66.896 22.304V21.952C66.896 21.248 67.0027 20.544 67.216 19.84C67.44 19.136 67.7813 18.496 68.24 17.92C68.6987 17.344 69.296 16.88 70.032 16.528C70.768 16.176 71.648 16 72.672 16C73.7173 16 74.6133 16.1813 75.36 16.544C76.1067 16.9067 76.6987 17.4133 77.136 18.064C77.5733 18.7147 77.84 19.4827 77.936 20.368H76.336C76.2507 19.7067 76.0373 19.1627 75.696 18.736C75.3547 18.2987 74.9227 17.9733 74.4 17.76C73.888 17.5467 73.312 17.44 72.672 17.44C71.9787 17.44 71.3707 17.5627 70.848 17.808C70.3253 18.0427 69.888 18.3787 69.536 18.816C69.1947 19.2427 68.9333 19.7387 68.752 20.304C68.5813 20.8693 68.496 21.4827 68.496 22.144C68.496 22.7733 68.5813 23.3707 68.752 23.936C68.9333 24.5013 69.2 25.0027 69.552 25.44C69.9147 25.8773 70.3627 26.224 70.896 26.48C71.4293 26.7253 72.0533 26.848 72.768 26.848C73.7707 26.848 74.6133 26.5973 75.296 26.096C75.9787 25.5947 76.3947 24.8693 76.544 23.92H78.144C78.0373 24.72 77.7653 25.4507 77.328 26.112C76.9013 26.7733 76.304 27.3013 75.536 27.696C74.7787 28.0907 73.856 28.288 72.768 28.288ZM84.1268 28.288C83.3801 28.288 82.7241 28.16 82.1588 27.904C81.5934 27.648 81.1134 27.312 80.7188 26.896C80.3348 26.4693 80.0414 25.9947 79.8388 25.472C79.6468 24.9493 79.5508 24.416 79.5508 23.872V23.584C79.5508 23.04 79.6521 22.5067 79.8548 21.984C80.0574 21.4507 80.3561 20.976 80.7508 20.56C81.1454 20.1333 81.6254 19.7973 82.1908 19.552C82.7561 19.296 83.4014 19.168 84.1268 19.168C84.8521 19.168 85.4974 19.296 86.0628 19.552C86.6281 19.7973 87.1081 20.1333 87.5028 20.56C87.8974 20.976 88.1961 21.4507 88.3988 21.984C88.6014 22.5067 88.7028 23.04 88.7028 23.584V23.872C88.7028 24.416 88.6014 24.9493 88.3988 25.472C88.2068 25.9947 87.9134 26.4693 87.5188 26.896C87.1348 27.312 86.6601 27.648 86.0948 27.904C85.5294 28.16 84.8734 28.288 84.1268 28.288ZM84.1268 26.912C84.7668 26.912 85.3108 26.7733 85.7588 26.496C86.2174 26.208 86.5641 25.824 86.7987 25.344C87.0441 24.864 87.1667 24.3253 87.1667 23.728C87.1667 23.12 87.0441 22.576 86.7987 22.096C86.5534 21.616 86.2014 21.2373 85.7428 20.96C85.2948 20.6827 84.7561 20.544 84.1268 20.544C83.5081 20.544 82.9694 20.6827 82.5108 20.96C82.0521 21.2373 81.7001 21.616 81.4548 22.096C81.2094 22.576 81.0868 23.12 81.0868 23.728C81.0868 24.3253 81.2041 24.864 81.4388 25.344C81.6841 25.824 82.0308 26.208 82.4788 26.496C82.9374 26.7733 83.4868 26.912 84.1268 26.912ZM91.0033 28V19.456H92.2193V23.12H92.0273C92.0273 22.2773 92.1393 21.568 92.3633 20.992C92.5979 20.4053 92.9499 19.9627 93.4193 19.664C93.8886 19.3547 94.4806 19.2 95.1953 19.2H95.2593C96.3366 19.2 97.1313 19.536 97.6433 20.208C98.1659 20.88 98.4273 21.8507 98.4273 23.12V28H96.8913V22.8C96.8913 22.1387 96.7046 21.6107 96.3313 21.216C95.9579 20.8107 95.4459 20.608 94.7953 20.608C94.1233 20.608 93.5793 20.816 93.1633 21.232C92.7473 21.648 92.5393 22.2027 92.5393 22.896V28H91.0033ZM104.566 28.096C103.926 28.096 103.371 28.0053 102.902 27.824C102.443 27.6427 102.086 27.3333 101.83 26.896C101.584 26.448 101.462 25.8453 101.462 25.088V16.864H102.934V25.28C102.934 25.7387 103.056 26.096 103.302 26.352C103.558 26.5973 103.915 26.72 104.374 26.72H105.878V28.096H104.566ZM99.9896 20.608V19.456H105.878V20.608H99.9896ZM108.466 28V19.456H110.002V28H108.466ZM107.154 20.672V19.456H110.002V20.672H107.154ZM108.898 18.08C108.557 18.08 108.301 17.9893 108.13 17.808C107.97 17.6267 107.89 17.3973 107.89 17.12C107.89 16.8427 107.97 16.6133 108.13 16.432C108.301 16.2507 108.557 16.16 108.898 16.16C109.239 16.16 109.49 16.2507 109.65 16.432C109.821 16.6133 109.906 16.8427 109.906 17.12C109.906 17.3973 109.821 17.6267 109.65 17.808C109.49 17.9893 109.239 18.08 108.898 18.08ZM112.972 28V19.456H114.188V23.12H113.996C113.996 22.2773 114.108 21.568 114.332 20.992C114.567 20.4053 114.919 19.9627 115.388 19.664C115.857 19.3547 116.449 19.2 117.164 19.2H117.228C118.305 19.2 119.1 19.536 119.612 20.208C120.135 20.88 120.396 21.8507 120.396 23.12V28H118.86V22.8C118.86 22.1387 118.673 21.6107 118.3 21.216C117.927 20.8107 117.415 20.608 116.764 20.608C116.092 20.608 115.548 20.816 115.132 21.232C114.716 21.648 114.508 22.2027 114.508 22.896V28H112.972ZM126.166 28.256C125.153 28.256 124.374 27.9253 123.83 27.264C123.286 26.6027 123.014 25.648 123.014 24.4V19.44H124.55V24.704C124.55 25.376 124.732 25.904 125.094 26.288C125.457 26.6613 125.948 26.848 126.566 26.848C127.206 26.848 127.729 26.6453 128.134 26.24C128.54 25.824 128.742 25.2587 128.742 24.544V19.44H130.278V28H129.062V24.336H129.254C129.254 25.1787 129.142 25.8933 128.918 26.48C128.694 27.056 128.358 27.4987 127.91 27.808C127.473 28.1067 126.913 28.256 126.23 28.256H126.166ZM136.885 28.288C136.139 28.288 135.493 28.16 134.949 27.904C134.405 27.648 133.963 27.312 133.621 26.896C133.28 26.4693 133.024 25.9947 132.853 25.472C132.693 24.9493 132.613 24.416 132.613 23.872V23.584C132.613 23.0293 132.693 22.4907 132.853 21.968C133.024 21.4453 133.28 20.976 133.621 20.56C133.963 20.1333 134.395 19.7973 134.917 19.552C135.451 19.296 136.075 19.168 136.789 19.168C137.717 19.168 138.48 19.3707 139.077 19.776C139.685 20.1707 140.133 20.6827 140.421 21.312C140.72 21.9413 140.869 22.6133 140.869 23.328V24.016H133.285V22.864H139.749L139.397 23.488C139.397 22.88 139.301 22.3573 139.109 21.92C138.917 21.472 138.629 21.1253 138.245 20.88C137.861 20.6347 137.376 20.512 136.789 20.512C136.181 20.512 135.675 20.6507 135.269 20.928C134.875 21.2053 134.576 21.584 134.373 22.064C134.181 22.544 134.085 23.0987 134.085 23.728C134.085 24.336 134.181 24.8853 134.373 25.376C134.576 25.856 134.885 26.24 135.301 26.528C135.717 26.8053 136.245 26.944 136.885 26.944C137.557 26.944 138.101 26.7947 138.517 26.496C138.944 26.1973 139.2 25.8507 139.285 25.456H140.725C140.608 26.0427 140.373 26.5493 140.021 26.976C139.669 27.4027 139.227 27.728 138.693 27.952C138.16 28.176 137.557 28.288 136.885 28.288ZM149.187 28L150.915 19.744H152.995L155.011 28H153.699L151.683 19.776H152.195L150.451 28H149.187ZM148.403 28V26.784H150.179V28H148.403ZM148.051 28L145.635 19.456H147.107L149.459 28H148.051ZM154.019 28V26.784H155.795V28H154.019ZM154.739 28L156.787 19.456H158.179L156.083 28H154.739ZM160.669 28V19.456H162.205V28H160.669ZM159.357 20.672V19.456H162.205V20.672H159.357ZM161.101 18.08C160.76 18.08 160.504 17.9893 160.333 17.808C160.173 17.6267 160.093 17.3973 160.093 17.12C160.093 16.8427 160.173 16.6133 160.333 16.432C160.504 16.2507 160.76 16.16 161.101 16.16C161.443 16.16 161.693 16.2507 161.853 16.432C162.024 16.6133 162.109 16.8427 162.109 17.12C162.109 17.3973 162.024 17.6267 161.853 17.808C161.693 17.9893 161.443 18.08 161.101 18.08ZM168.503 28.096C167.863 28.096 167.308 28.0053 166.839 27.824C166.38 27.6427 166.023 27.3333 165.767 26.896C165.522 26.448 165.399 25.8453 165.399 25.088V16.864H166.871V25.28C166.871 25.7387 166.994 26.096 167.239 26.352C167.495 26.5973 167.852 26.72 168.311 26.72H169.815V28.096H168.503ZM163.927 20.608V19.456H169.815V20.608H163.927ZM171.988 28V16.32H173.524V23.296H173.14C173.14 22.4533 173.246 21.728 173.46 21.12C173.684 20.5013 174.025 20.0267 174.484 19.696C174.942 19.3653 175.529 19.2 176.244 19.2H176.308C177.332 19.2 178.105 19.5413 178.628 20.224C179.15 20.896 179.412 21.8613 179.412 23.12V28H177.876V22.8C177.876 22.1067 177.678 21.568 177.284 21.184C176.9 20.8 176.398 20.608 175.78 20.608C175.097 20.608 174.548 20.8373 174.132 21.296C173.726 21.744 173.524 22.336 173.524 23.072V28H171.988ZM191.303 28.288C190.396 28.288 189.575 28.1387 188.839 27.84C188.103 27.5413 187.468 27.12 186.935 26.576C186.412 26.032 186.007 25.392 185.719 24.656C185.431 23.9093 185.287 23.0987 185.287 22.224V21.872C185.287 21.1253 185.415 20.4053 185.671 19.712C185.937 19.008 186.316 18.3787 186.807 17.824C187.308 17.2587 187.916 16.816 188.631 16.496C189.345 16.1653 190.151 16 191.047 16C192.017 16 192.881 16.1867 193.639 16.56C194.396 16.9227 195.004 17.4347 195.463 18.096C195.921 18.7467 196.188 19.504 196.263 20.368H194.663C194.588 19.7173 194.375 19.1787 194.023 18.752C193.671 18.3147 193.233 17.9893 192.711 17.776C192.199 17.552 191.644 17.44 191.047 17.44C190.439 17.44 189.879 17.552 189.367 17.776C188.855 17.9893 188.412 18.2987 188.039 18.704C187.676 19.1093 187.393 19.5947 187.191 20.16C186.988 20.7253 186.887 21.36 186.887 22.064C186.887 22.864 186.993 23.568 187.207 24.176C187.431 24.7733 187.74 25.2747 188.135 25.68C188.529 26.0747 188.993 26.3733 189.527 26.576C190.071 26.7787 190.663 26.88 191.303 26.88C192.209 26.88 193.004 26.6987 193.687 26.336C194.38 25.9627 194.903 25.4827 195.255 24.896L194.679 26.8V23.328H196.151V26.112C195.628 26.7947 194.956 27.328 194.135 27.712C193.313 28.096 192.369 28.288 191.303 28.288ZM190.887 23.648V22.336H197.143V23.648H190.887ZM203.096 28.288C202.349 28.288 201.693 28.16 201.128 27.904C200.562 27.648 200.082 27.312 199.688 26.896C199.304 26.4693 199.01 25.9947 198.808 25.472C198.616 24.9493 198.52 24.416 198.52 23.872V23.584C198.52 23.04 198.621 22.5067 198.824 21.984C199.026 21.4507 199.325 20.976 199.72 20.56C200.114 20.1333 200.594 19.7973 201.16 19.552C201.725 19.296 202.37 19.168 203.096 19.168C203.821 19.168 204.466 19.296 205.032 19.552C205.597 19.7973 206.077 20.1333 206.472 20.56C206.866 20.976 207.165 21.4507 207.368 21.984C207.57 22.5067 207.672 23.04 207.672 23.584V23.872C207.672 24.416 207.57 24.9493 207.368 25.472C207.176 25.9947 206.882 26.4693 206.488 26.896C206.104 27.312 205.629 27.648 205.064 27.904C204.498 28.16 203.842 28.288 203.096 28.288ZM203.096 26.912C203.736 26.912 204.28 26.7733 204.728 26.496C205.186 26.208 205.533 25.824 205.767 25.344C206.013 24.864 206.135 24.3253 206.135 23.728C206.135 23.12 206.013 22.576 205.767 22.096C205.522 21.616 205.17 21.2373 204.712 20.96C204.264 20.6827 203.725 20.544 203.096 20.544C202.477 20.544 201.938 20.6827 201.48 20.96C201.021 21.2373 200.669 21.616 200.424 22.096C200.178 22.576 200.056 23.12 200.056 23.728C200.056 24.3253 200.173 24.864 200.408 25.344C200.653 25.824 201 26.208 201.448 26.496C201.906 26.7733 202.456 26.912 203.096 26.912ZM213.908 28.288C213.161 28.288 212.505 28.16 211.94 27.904C211.375 27.648 210.895 27.312 210.5 26.896C210.116 26.4693 209.823 25.9947 209.62 25.472C209.428 24.9493 209.332 24.416 209.332 23.872V23.584C209.332 23.04 209.433 22.5067 209.636 21.984C209.839 21.4507 210.137 20.976 210.532 20.56C210.927 20.1333 211.407 19.7973 211.972 19.552C212.537 19.296 213.183 19.168 213.908 19.168C214.633 19.168 215.279 19.296 215.844 19.552C216.409 19.7973 216.889 20.1333 217.284 20.56C217.679 20.976 217.977 21.4507 218.18 21.984C218.383 22.5067 218.484 23.04 218.484 23.584V23.872C218.484 24.416 218.383 24.9493 218.18 25.472C217.988 25.9947 217.695 26.4693 217.3 26.896C216.916 27.312 216.441 27.648 215.876 27.904C215.311 28.16 214.655 28.288 213.908 28.288ZM213.908 26.912C214.548 26.912 215.092 26.7733 215.54 26.496C215.999 26.208 216.345 25.824 216.58 25.344C216.825 24.864 216.948 24.3253 216.948 23.728C216.948 23.12 216.825 22.576 216.58 22.096C216.335 21.616 215.983 21.2373 215.524 20.96C215.076 20.6827 214.537 20.544 213.908 20.544C213.289 20.544 212.751 20.6827 212.292 20.96C211.833 21.2373 211.481 21.616 211.236 22.096C210.991 22.576 210.868 23.12 210.868 23.728C210.868 24.3253 210.985 24.864 211.22 25.344C211.465 25.824 211.812 26.208 212.26 26.496C212.719 26.7733 213.268 26.912 213.908 26.912ZM224.016 31.328C223.622 31.328 223.222 31.312 222.817 31.28C222.422 31.248 222.043 31.2053 221.681 31.152V29.856C222.065 29.9093 222.465 29.952 222.881 29.984C223.307 30.0267 223.707 30.048 224.081 30.048C224.859 30.048 225.478 29.9413 225.937 29.728C226.406 29.5253 226.742 29.2 226.945 28.752C227.158 28.3147 227.265 27.7493 227.265 27.056V25.424L227.777 24.208C227.745 25.072 227.563 25.792 227.233 26.368C226.902 26.9333 226.47 27.36 225.937 27.648C225.414 27.9253 224.833 28.064 224.193 28.064C223.595 28.064 223.046 27.952 222.545 27.728C222.054 27.4933 221.627 27.1733 221.265 26.768C220.913 26.3627 220.635 25.8987 220.433 25.376C220.241 24.8427 220.145 24.2827 220.145 23.696V23.408C220.145 22.8107 220.246 22.256 220.449 21.744C220.651 21.2213 220.934 20.768 221.297 20.384C221.659 20 222.091 19.7013 222.593 19.488C223.105 19.2747 223.665 19.168 224.273 19.168C224.987 19.168 225.617 19.3227 226.161 19.632C226.705 19.9307 227.131 20.3733 227.441 20.96C227.761 21.536 227.937 22.2453 227.969 23.088L227.521 23.104V19.456H228.737V26.992C228.737 28.016 228.577 28.8427 228.257 29.472C227.947 30.112 227.446 30.5813 226.753 30.88C226.07 31.1787 225.158 31.328 224.016 31.328ZM224.481 26.656C224.993 26.656 225.457 26.544 225.873 26.32C226.299 26.096 226.635 25.776 226.881 25.36C227.137 24.9333 227.265 24.4267 227.265 23.84V23.104C227.265 22.528 227.131 22.0427 226.865 21.648C226.609 21.2533 226.273 20.9547 225.857 20.752C225.441 20.5493 224.987 20.448 224.497 20.448C223.942 20.448 223.451 20.576 223.025 20.832C222.598 21.088 222.267 21.4507 222.033 21.92C221.798 22.3787 221.681 22.9227 221.681 23.552C221.681 24.1813 221.798 24.7307 222.033 25.2C222.278 25.6693 222.609 26.032 223.025 26.288C223.451 26.5333 223.937 26.656 224.481 26.656ZM231.677 28V16.32H233.213V28H231.677ZM230.493 17.536V16.32H233.213V17.536H230.493ZM239.792 28.288C239.045 28.288 238.4 28.16 237.856 27.904C237.312 27.648 236.869 27.312 236.528 26.896C236.186 26.4693 235.93 25.9947 235.76 25.472C235.6 24.9493 235.52 24.416 235.52 23.872V23.584C235.52 23.0293 235.6 22.4907 235.76 21.968C235.93 21.4453 236.186 20.976 236.528 20.56C236.869 20.1333 237.301 19.7973 237.824 19.552C238.357 19.296 238.981 19.168 239.696 19.168C240.624 19.168 241.386 19.3707 241.984 19.776C242.592 20.1707 243.04 20.6827 243.328 21.312C243.626 21.9413 243.776 22.6133 243.776 23.328V24.016H236.192V22.864H242.656L242.304 23.488C242.304 22.88 242.208 22.3573 242.016 21.92C241.824 21.472 241.536 21.1253 241.152 20.88C240.768 20.6347 240.282 20.512 239.696 20.512C239.088 20.512 238.581 20.6507 238.176 20.928C237.781 21.2053 237.482 21.584 237.28 22.064C237.088 22.544 236.992 23.0987 236.992 23.728C236.992 24.336 237.088 24.8853 237.28 25.376C237.482 25.856 237.792 26.24 238.208 26.528C238.624 26.8053 239.152 26.944 239.792 26.944C240.464 26.944 241.008 26.7947 241.424 26.496C241.85 26.1973 242.106 25.8507 242.192 25.456H243.632C243.514 26.0427 243.28 26.5493 242.928 26.976C242.576 27.4027 242.133 27.728 241.6 27.952C241.066 28.176 240.464 28.288 239.792 28.288Z" fill="black"/>
<defs>
<filter id="filter0_d_109_13" x="0" y="0" width="275" height="51" filterUnits="userSpaceOnUse" color-interpolation-filters="sRGB">
<feFlood flood-opacity="0" result="BackgroundImageFix"/>
<feColorMatrix in="SourceAlpha" type="matrix" values="0 0 0 0 0 0 0 0 0 0 0 0 0 0 0 0 0 0 127 0" result="hardAlpha"/>
<feOffset dy="3"/>
<feGaussianBlur stdDeviation="1.5"/>
<feComposite in2="hardAlpha" operator="out"/>
<feColorMatrix type="matrix" values="0 0 0 0 0 0 0 0 0 0 0 0 0 0 0 0 0 0 0.25 0"/>
<feBlend mode="normal" in2="BackgroundImageFix" result="effect1_dropShadow_109_13"/>
<feBlend mode="normal" in="SourceGraphic" in2="effect1_dropShadow_109_13" result="shape"/>
</filter>
<clipPath id="clip0_109_13">
<rect width="25" height="25" fill="white" transform="translate(31 10)"/>
</clipPath>
</defs>
</svg>
